# xmcd CD database file
#
# Track frame offsets:
#	150
#	21518
#	42118
#	59063
#	77110
#	100166
#	121933
#	144369
#	160242
#	175215
#	196302
#	216017
#
# Disc length: 3166 seconds
#
# Revision: 0
# Processed by: cddbd v1.5.2PL0 Copyright (c) Steve Scherf et al.
# Submitted via: CDex 1.51
#
DISCID=a50c5c0c
DTITLE=Huckleberry Swedes - Suburban Dreaming
DYEAR=2009
DGENRE=Country
TTITLE0=Dust Storms Falling
TTITLE1=Will My Heart Stay On Track
TTITLE2=Small Cage Big Land
TTITLE3=We Farm Our Love
TTITLE4=My Luck Is Changing
TTITLE5=The Rise And Fall
TTITLE6=Somwehere By Sundown
TTITLE7=Wild Peach Pie
TTITLE8=hair Trigger
TTITLE9=Cast A Line
TTITLE10=Black Gold
TTITLE11=Baby's Gonna Lift Me Up
EXTD=YEAR: 2009
EXTT0=
EXTT1=
EXTT2=
EXTT3=
EXTT4=
EXTT5=
EXTT6=
EXTT7=
EXTT8=
EXTT9=
EXTT10=
EXTT11=
PLAYORDER=
